PathFileType	4	(X/Y/Z)	/Users/itak/Documents/Research/Walk-IL/dataset/trc/00536_00009.trc
DataRate	CameraRate	NumFrames	NumMarkers	Units	OrigDataRate	OrigDataStartFrame	OrigNumFrames
100.000000	100.000000	4	53	mm	100.000000	582	776
Frame#	Time	RPSI			LPSI			L3			STRN			T10			C7			CLAV			RBAK			LBAK			LSHO			LUPA			LAEL			LAOL			LWTS			LWPS			LFRA			LHPS			LHTS			RSHO			RUPA			RAEL			RAOL			RWTS			RWPS			RFRA			RIFD			RHTS			RHPS			RBHD			LFHD			RFHD			LBHD			LHIP			RHIP			RASI			LASI			LKNE			LTHI			LANK			LTIP			LTOE			LMT1			LMT5			LHEE			RKNE			RTHI			RANK			RTIP			RTOE			RMT1			RMT5			RHEE			LIFD			
		X1	Y1	Z1	X2	Y2	Z2	X3	Y3	Z3	X4	Y4	Z4	X5	Y5	Z5	X6	Y6	Z6	X7	Y7	Z7	X8	Y8	Z8	X9	Y9	Z9	X10	Y10	Z10	X11	Y11	Z11	X12	Y12	Z12	X13	Y13	Z13	X14	Y14	Z14	X15	Y15	Z15	X16	Y16	Z16	X17	Y17	Z17	X18	Y18	Z18	X19	Y19	Z19	X20	Y20	Z20	X21	Y21	Z21	X22	Y22	Z22	X23	Y23	Z23	X24	Y24	Z24	X25	Y25	Z25	X26	Y26	Z26	X27	Y27	Z27	X28	Y28	Z28	X29	Y29	Z29	X30	Y30	Z30	X31	Y31	Z31	X32	Y32	Z32	X33	Y33	Z33	X34	Y34	Z34	X35	Y35	Z35	X36	Y36	Z36	X37	Y37	Z37	X38	Y38	Z38	X39	Y39	Z39	X40	Y40	Z40	X41	Y41	Z41	X42	Y42	Z42	X43	Y43	Z43	X44	Y44	Z44	X45	Y45	Z45	X46	Y46	Z46	X47	Y47	Z47	X48	Y48	Z48	X49	Y49	Z49	X50	Y50	Z50	X51	Y51	Z51	X52	Y52	Z52	X53	Y53	Z53	

583	5.82	449.9940490722656	1021.416137695312	501.5013427734375	453.7451782226562	1023.077819824219	368.2549133300781	457.9156494140625	1111.979125976562	432.7446594238281	689.2151489257812	1293.926147460938	424.3821411132812	447.2501831054688	1237.27587890625	431.0263977050781	499.441650390625	1509.84033203125	442.5223999023438	671.3019409179688	1405.558715820312	424.7209167480469	431.4593505859375	1386.487915039062	533.5903930664062	461.2734069824219	1457.122192382812	351.6958312988281	557.9575805664062	1479.621826171875	266.7157287597656	544.4974975585938	1353.202026367188	186.5207824707031	562.8696899414062	1130.978515625	165.3803558349609	476.3366394042969	1122.418334960938	218.2364044189453	670.8749389648438	896.5515747070312	212.12841796875	622.642578125	867.9923706054688	144.916015625	589.0576171875	1046.127319335938	159.3390960693359	637.0609741210938	809.2922973632812	154.0964050292969	691.8894653320312	820.6517944335938	192.8175964355469	567.1351318359375	1469.7939453125	595.041748046875	551.1516723632812	1406.501220703125	664.2645874023438	536.4078979492188	1117.301513671875	710.4706420898438	479.7048645019531	1100.948608398438	684.234130859375	667.3956909179688	896.0851440429688	674.2809448242188	623.1050415039062	877.0909423828125	739.8403930664062	545.6717529296875	1062.190185546875	718.7847900390625	677.5369262695312	722.917236328125	679.11083984375	695.5028686523438	804.4737548828125	689.9197387695312	640.2939453125	803.3941040039062	739.9296875	586.7252197265625	1687.874877929688	507.5439453125	726.0545043945312	1710.566284179688	354.8944702148438	725.4375	1708.522094726562	499.3208312988281	594.3264770507812	1688.338623046875	342.5923156738281	581.3675537109375	945.0516357421875	239.2591094970703	562.0416870117188	943.4356689453125	628.8803100585938	654.7225952148438	967.2830200195312	574.1991577148438	660.442626953125	964.447265625	297.9734497070312	670.7667236328125	502.8740234375	305.661865234375	642.9083251953125	664.9844970703125	263.1126708984375	667.062744140625	31.35420608520508	325.2670593261719	651.146728515625	252.8763885498047	308.6682434082031	876.2604370117188	47.30788803100586	387.6169738769531	802.7645874023438	50.31975936889648	419.3252563476562	789.8451538085938	35.47562789916992	313.3560180664062	598.50439453125	37.65795135498047	378.1362915039062	504.6939086914062	504.0686645507812	585.7828369140625	578.6861572265625	785.6006469726562	623.076416015625	214.7153930664062	113.2788314819336	566.8828735351562	442.827880859375	369.469482421875	573.4945068359375	404.2568359375	39.75838088989258	509.6346130371094	348.1944274902344	59.92591857910156	473.7322692871094	329.1367492675781	48.80305480957031	576.2742309570312	164.2222595214844	142.0967559814453	513.43310546875	683.6185913085938	726.3090209960938	211.1749877929688	
584	5.83	454.8497314453125	1021.821350097656	500.3249206542969	458.6910400390625	1023.554138183594	367.0771484375	462.7678527832031	1112.300048828125	431.5407409667969	694.0466918945312	1294.327270507812	423.0464172363281	452.0849609375	1237.534545898438	429.5965270996094	504.0994567871094	1510.180541992188	440.9237365722656	676.0713500976562	1405.96923828125	423.3543701171875	436.1142883300781	1386.818115234375	532.0252075195312	466.1069030761719	1457.400146484375	350.0132141113281	562.9188842773438	1479.9755859375	265.2786560058594	550.3405151367188	1353.69091796875	184.7873077392578	570.5010986328125	1131.67138671875	163.0962982177734	483.4780578613281	1122.2666015625	215.3412322998047	679.790771484375	897.8917846679688	210.2730712890625	632.3499755859375	869.1424560546875	142.5848846435547	597.3399047851562	1046.984008789062	157.1120910644531	647.2249145507812	810.5484008789062	151.6681976318359	701.5697021484375	822.22119140625	190.9122619628906	571.71435546875	1470.258422851562	593.5388793945312	555.760498046875	1406.963500976562	662.7496948242188	541.5865478515625	1117.738037109375	708.916015625	484.9201049804688	1101.204345703125	682.6876220703125	673.5560302734375	897.1910400390625	672.6405639648438	629.3557739257812	877.9085693359375	738.0711059570312	551.0753784179688	1062.679809570312	717.1934204101562	684.7015380859375	724.1200561523438	677.2514038085938	702.21240234375	805.7627563476562	688.160400390625	646.9683227539062	804.333740234375	738.0897216796875	591.3485107421875	1688.34326171875	505.9404602050781	730.8502807617188	1710.921875	353.4384155273438	730.09228515625	1708.908447265625	497.8731994628906	599.1372680664062	1688.747314453125	341.0036010742188	584.3895874023438	946.3226928710938	237.16357421875	567.10400390625	943.6749877929688	627.4208984375	659.6228637695312	967.6455688476562	572.896240234375	665.2103271484375	964.66552734375	296.705322265625	673.4032592773438	502.71826171875	305.0182800292969	646.5457763671875	664.9678955078125	262.1731872558594	667.1495971679688	31.41007614135742	325.3617248535156	652.4656982421875	252.8485565185547	308.4601440429688	876.5288696289062	46.54766845703125	387.8902893066406	802.9453735351562	49.96500778198242	419.5034790039062	789.9468994140625	35.47005844116211	313.3336181640625	598.5501098632812	37.77329254150391	378.1174011230469	511.8678283691406	503.894287109375	586.07421875	584.1961669921875	786.0020751953125	622.028564453125	217.0204162597656	116.4353713989258	566.9971313476562	448.7491149902344	369.7061157226562	573.8367919921875	404.8340148925781	39.61415100097656	509.5926513671875	349.3132629394531	60.7976188659668	473.8200988769531	330.2155151367188	49.73836898803711	576.4049072265625	167.4523010253906	146.2268981933594	513.51220703125	693.8325805664062	727.7734985351562	208.9823455810547	
585	5.84	459.6231384277344	1022.157165527344	499.159423828125	463.5421142578125	1023.9580078125	365.9217834472656	467.5116577148438	1112.572387695312	430.3656005859375	698.7859497070312	1294.6845703125	421.7613525390625	456.8069152832031	1237.762573242188	428.218994140625	508.6751403808594	1510.484252929688	439.3716125488281	680.7581176757812	1406.33251953125	422.0262756347656	440.6904907226562	1387.104736328125	530.5223388671875	470.8475646972656	1457.639282226562	348.381103515625	567.7965087890625	1480.271118164062	263.8812561035156	556.1211547851562	1354.117797851562	183.1183013916016	578.1660766601562	1132.315551757812	160.8733215332031	490.6389770507812	1122.055786132812	212.4641571044922	688.6239624023438	899.1168823242188	208.4205322265625	642.001220703125	870.244384765625	140.2435760498047	605.6279907226562	1047.786865234375	154.9198150634766	657.3069458007812	811.7492065429688	149.1865844726562	711.11767578125	823.6675415039062	189.0188598632812	576.2306518554688	1470.686889648438	592.077880859375	560.314208984375	1407.385620117188	661.2816772460938	546.7220458984375	1118.1318359375	707.4177856445312	490.0968017578125	1101.411254882812	681.2261352539062	679.6874389648438	898.2926025390625	670.9527587890625	635.6175537109375	878.6956787109375	736.2913818359375	556.4484252929688	1063.12841796875	715.6519165039062	691.873046875	725.3241577148438	675.316650390625	708.9222412109375	807.0523071289062	686.330078125	653.6673583984375	805.2412719726562	736.2026977539062	595.8857421875	1688.771362304688	504.3723754882812	735.5748901367188	1711.233642578125	352.0215454101562	734.6744995117188	1709.261840820312	496.4623718261719	603.8776245117188	1689.10986328125	339.4431762695312	587.6292114257812	947.4202880859375	235.2259979248047	572.1299438476562	943.8561401367188	625.9625854492188	664.42578125	967.9785766601562	571.6344604492188	669.9131469726562	964.8606567382812	295.4716796875	676.0659790039062	502.5564270019531	304.4071044921875	650.2286987304688	664.93017578125	261.2385864257812	667.2577514648438	31.48453140258789	325.4522705078125	653.8047485351562	252.8207702636719	308.2926940917969	876.7703247070312	45.82819366455078	388.190185546875	803.104736328125	49.61257553100586	419.6906127929688	790.0326538085938	35.4789924621582	313.3202514648438	598.6044921875	37.91157531738281	378.0930786132812	519.0220336914062	503.6793823242188	586.3906860351562	589.5938110351562	786.3704833984375	621.031494140625	219.3922424316406	119.6773834228516	567.188232421875	454.6663818359375	369.9352722167969	574.1807250976562	405.4852905273438	39.44372177124023	509.5311889648438	350.4881286621094	61.76256561279297	473.9288330078125	331.3462829589844	50.79196929931641	576.5376586914062	170.6752166748047	150.3981781005859	513.6919555664062	703.8273315429688	729.128662109375	206.7417907714844	
586	5.850000000000001	464.3109741210938	1022.436279296875	498.0029296875	468.2999877929688	1024.299438476562	364.7851257324219	472.153076171875	1112.803100585938	429.2113342285156	703.4269409179688	1295.00634765625	420.5306091308594	461.4169311523438	1237.968383789062	426.8924865722656	513.1663818359375	1510.756958007812	437.8691101074219	685.3564453125	1406.657958984375	420.7440795898438	445.1831359863281	1387.358154296875	529.0804443359375	475.4921264648438	1457.8466796875	346.8023071289062	572.58642578125	1480.513916015625	262.5224914550781	561.8284912109375	1354.485717773438	181.5195159912109	585.8452758789062	1132.913818359375	158.7265625	497.817138671875	1121.795166015625	209.62060546875	697.3660278320312	900.2349853515625	206.5685272216797	651.577392578125	871.3033447265625	137.8955841064453	613.9066772460938	1048.54345703125	152.7725067138672	667.2839965820312	812.8993530273438	146.6634979248047	720.5243530273438	825.0003662109375	187.1348571777344	580.6807861328125	1471.087768554688	590.6588745117188	564.8126220703125	1407.7724609375	659.8610229492188	551.8080444335938	1118.490356445312	705.9796752929688	495.2284851074219	1101.5791015625	679.8546142578125	685.7852783203125	899.3958740234375	669.2112426757812	641.8800659179688	879.4607543945312	734.5037231445312	561.7861328125	1063.540283203125	714.1653442382812	699.030517578125	726.5328369140625	673.3101196289062	715.6132202148438	808.3450317382812	684.4254760742188	660.3741455078125	806.1224365234375	734.27490234375	600.3417358398438	1689.166259765625	502.8458862304688	740.2261962890625	1711.50341796875	350.6458740234375	739.1879272460938	1709.586059570312	495.0869140625	608.5468139648438	1689.43359375	337.9165954589844	591.2620239257812	948.257568359375	233.5266876220703	577.0975952148438	944.0011596679688	624.5186767578125	669.1271362304688	968.2939453125	570.422119140625	674.5587768554688	965.0405883789062	294.2748107910156	678.7401123046875	502.3894958496094	303.8350524902344	653.919677734375	664.8734741210938	260.35205078125	667.387451171875	31.58379173278809	325.53369140625	655.1533203125	252.7848968505859	308.1676635742188	876.9852294921875	45.15187835693359	388.5116882324219	803.2449951171875	49.26494598388672	419.8788757324219	790.1028442382812	35.5010871887207	313.3197631835938	598.6669311523438	38.06126022338867	378.0719299316406	526.13623046875	503.4447937011719	586.7097778320312	594.89794921875	786.711181640625	620.0691528320312	221.8343505859375	123.0034561157227	567.45263671875	460.5636596679688	370.175537109375	574.5172119140625	406.2157897949219	39.24594497680664	509.4613037109375	351.7091979980469	62.81499099731445	474.0612182617188	332.5406188964844	51.96984100341797	576.658203125	173.8782348632812	154.6122741699219	513.9654541015625	713.6145629882812	730.3780517578125	204.4486846923828	
